<?xml version="1.0" encoding="UTF-8"?>
<svg id="Ebene_2" data-name="Ebene 2" xmlns="http://www.w3.org/2000/svg" viewBox="0 0 200 200">
  <defs>
    <style>
      .cls-1 {
        fill: #fff;
      }

      .cls-2 {
        stroke-width: 13px;
      }

      .cls-2, .cls-3 {
        fill: none;
        stroke: #000;
        stroke-miterlimit: 10;
      }

      .cls-3 {
        stroke-width: 12px;
      }

      .cls-4 {
        fill: #ee1b24;
      }
    </style>
  </defs>
  <path class="cls-4" d="M100,0C44.77,0,0,44.77,0,100h74.05c0-14.33,11.62-25.95,25.95-25.95s25.95,11.62,25.95,25.95h74.05C200,44.77,155.23,0,100,0Z"/>
  <path class="cls-1" d="M100,200c55.23,0,100-44.77,100-100h-74.05c0,14.33-11.62,25.95-25.95,25.95s-25.95-11.62-25.95-25.95H0c0,55.23,44.77,100,100,100Z"/>
  <path d="M100,13c47.97,0,87,39.03,87,87s-39.03,87-87,87S13,147.97,13,100,52.03,13,100,13M100,0C44.77,0,0,44.77,0,100s44.77,100,100,100,100-44.77,100-100S155.23,0,100,0h0Z"/>
  <line class="cls-2" x1="74.05" y1="100" x2="6.54" y2="100"/>
  <line class="cls-2" x1="193.46" y1="100" x2="125.95" y2="100"/>
  <circle class="cls-3" cx="100" cy="100" r="25.95"/>
</svg>