<?xml version="1.0" encoding="UTF-8"?>
<svg id="Ebene_2" data-name="Ebene 2" xmlns="http://www.w3.org/2000/svg" viewBox="0 0 200 200">
  <defs>
    <style>
      .cls-1 {
        fill: #e76058;
      }

      .cls-2 {
        fill: #858f99;
      }

      .cls-3 {
        stroke: #858f99;
        stroke-miterlimit: 10;
        stroke-width: 6px;
      }

      .cls-3, .cls-4 {
        fill: #fff;
      }
    </style>
  </defs>
  <path class="cls-4" d="M100.4,139.02c-18.34,0-33.77-12.74-37.92-29.83H.82c4.66,50.84,47.54,90.8,99.57,90.8s94.92-39.97,99.57-90.8h-61.66c-4.15,17.09-19.57,29.83-37.92,29.83Z"/>
  <path class="cls-2" d="M193.16,115.2c-3.38,20.69-13.62,39.68-29.27,54.05-17.39,15.97-39.94,24.76-63.5,24.76s-46.1-8.79-63.5-24.76c-15.65-14.37-25.89-33.36-29.27-54.05h50.4c2.82,7.81,7.8,14.79,14.34,20.01,7.93,6.33,17.88,9.81,28.03,9.81s20.09-3.49,28.03-9.81c6.54-5.22,11.53-12.21,14.34-20.01h50.4M199.97,109.2h-61.66c-4.15,17.09-19.57,29.83-37.92,29.83s-33.77-12.74-37.92-29.83H.82c4.66,50.84,47.54,90.8,99.57,90.8s94.92-39.97,99.57-90.8h0Z"/>
  <path class="cls-3" d="M121.03,100c0-11.38-9.25-20.63-20.63-20.63s-20.63,9.25-20.63,20.63,9.25,20.63,20.63,20.63,20.63-9.25,20.63-20.63Z"/>
  <path class="cls-1" d="M100.4,0C48.36,0,5.48,39.97.82,90.8h61.66c4.15-17.09,19.56-29.83,37.92-29.83s33.77,12.74,37.92,29.83h61.66C195.3,39.97,152.43,0,100.4,0Z"/>
</svg>