<?xml version="1.0" encoding="UTF-8"?>
<svg id="Ebene_1" data-name="Ebene 1" xmlns="http://www.w3.org/2000/svg" viewBox="0 0 404.95 409.1">
  <path d="M65.57,408.82c-81.02-7.89-90.1-126.9-9.59-145.72,18.95-4.43,37.21-1.23,54.3,7.59V52.32c0-4.45,6.43-12.43,10.87-13.88L384.57.02c11.13-.45,19.52,6.86,20.37,17.93v283.51c-3.78,61.62-75.63,93.04-122.61,52.28-46.44-40.29-24.75-117.8,35.37-128.35,17.81-3.13,34.6.46,50.48,8.57v-120.56l-221.17,31.14.03,196.05c-2.49,34.46-31.69,65.04-66.3,68.24-3.97.37-11.22.38-15.17,0ZM368.18,39.94l-221.17,31.14v36.73l221.17-31.94v-35.93ZM367.89,298.12c0-20.4-16.54-36.94-36.94-36.94s-36.94,16.54-36.94,36.94,16.54,36.94,36.94,36.94,36.94-16.54,36.94-36.94ZM110.21,334.93c0-20.41-16.54-36.95-36.95-36.95s-36.95,16.54-36.95,36.95,16.54,36.95,36.95,36.95,36.95-16.54,36.95-36.95Z"/>
</svg>