<?xml version="1.0" encoding="UTF-8"?>
<svg id="Ebene_2" xmlns="http://www.w3.org/2000/svg" version="1.1" viewBox="0 0 229.53 230.51">
  <!-- Generator: Adobe Illustrator 29.8.1, SVG Export Plug-In . SVG Version: 2.1.1 Build 2)  -->
  <rect width="230.51" height="230.51" rx="50" ry="50" fill="#e76058"/>
  <path d="M114.77,143.63c-13.34,0-24.56-9.26-27.58-21.69h-44.84c3.39,36.97,34.57,66.03,72.41,66.03s69.03-29.06,72.41-66.03h-44.84c-3.02,12.43-14.24,21.69-27.58,21.69Z" fill="#fff"/>
  <path d="M129.77,115.26c0-8.28-6.73-15-15-15s-15,6.73-15,15,6.73,15,15,15,15-6.73,15-15Z" fill="#fff"/>
  <path d="M114.77,42.53c-37.84,0-69.03,29.06-72.41,66.03h44.84c3.02-12.43,14.23-21.69,27.58-21.69s24.56,9.26,27.58,21.69h44.84c-3.39-36.97-34.57-66.03-72.41-66.03Z" fill="#fff"/>
</svg>