<?xml version="1.0" encoding="UTF-8"?>
<svg id="Ebene_1" xmlns="http://www.w3.org/2000/svg" baseProfile="tiny" version="1.2" viewBox="0 0 1792.46 336.65">
  <!-- Generator: Adobe Illustrator 29.8.1, SVG Export Plug-In . SVG Version: 2.1.1 Build 2)  -->
  <path d="M964.38,0v58.51h209.17l51.5,42.32,52.22-42.31,266.69-.05,2.47,1.05,20.05,21.55,19.76-22.57h176.72l-108.54,121.7,103.6,121.5h-171.78l-19.77-22.56-20.04,21.54-2.47,1.05-266.69-.05-52.22-42.31-51.5,42.32h-650.1v-40.89c-52.79,63.64-152.09,73.88-218.92,25.95-22.92-16.44-42.64-40.94-50.58-68.25l-2.11.35-49.73,41.24h-65.26v41.59H4.94V58.51h197.89l64.89,53.59c51.72-81.04,175.05-91.09,243.77-25.76l11.98,13.05v-40.89h284.66l1.06-1.06V23.97L964.38,0Z" fill="#fff"/>
  <path d="M189.42,94.46H40.92v171.3h59.26c-.39-.9.71-2.09.71-2.47v-39.12h88.54l52.9-44.42v-40.86l-52.9-44.42ZM188.36,183.28h-93.12v-47.94h93.12v47.94Z" fill="#c0c2c2"/>
  <path d="M1160.86,94.46h-154.85v171.3h154.15l53.6-44.42.22-81.96-53.12-44.91ZM1159.8,222.05h-99.47v-83.18h99.47v83.18Z" fill="#c0c2c2"/>
  <path d="M982.73,94.46l-35.63,50.05h-97v13.39h77.96l1.06,1.06v40.89c0,.23-.93,1.07-.71,1.76h-78.31v11.63c0,.36-1.11,1.48-.71,2.47h97.71l35.63,50.05h-146.39l-53.32-44.01.04-83.08,53.28-44.2h146.39Z" fill="#c0c2c2"/>
  <path d="M1436.35,94.46l-33.94,48.21c-.48.66-2.51,1.84-3.09,1.84h-96.3v13.39h79.01v43.71h-77.96l-1.06,1.06v11.28c0,.23.93,1.07.71,1.76h97l35.63,50.05h-146.39l-53.65-45.08-.36-79.38.69-2.83,53.31-44.01h146.39Z" fill="#c0c2c2"/>
  <path d="M1682.56,94.46l-76.22,85.65,72.69,85.65h-76.9c-.12,0-.21-1.31-1.01-2.13-12.2-12.51-23.05-26.29-35.32-38.74l-36.68,40.87h-79.37l76.07-85.64-76.07-85.66h79.37l36.68,40.87,36.68-40.87h80.07Z" fill="#c0c2c2"/>
  <path d="M304.06,236.87l54.08-26.64c1.29-.12,7.81,5.49,9.9,6.76,28.42,17.24,77.13,7.86,85.11-28.17,2.1-9.46.58-16-1.57-25.18l53.31-26.08c1.48-.14,2.58,3.16,3.17,4.37,16.29,33.61,8.07,73.63-16.69,100.58-39.36,42.84-110.32,49.76-159.31,19.59-7.37-4.54-22.57-16.55-27.31-23.46-.41-.59-.96-.74-.69-1.77Z" fill="#c0c2c2"/>
  <path d="M394.91,151.05c46.47-5.34,51.51,54.68,8.96,58.3-44.59,3.8-50.01-53.58-8.96-58.3Z" fill="#c0c2c2"/>
  <path d="M619.41,94.46v55.69l5.98-.02,56.45-55.67h81.48l-85.31,80.62,90.25,90.68h-80.07l-59.98-60.61c-2.75.58-6.76-1.15-8.8.34v60.27h-59.97V94.46h59.97Z" fill="#c0c2c2"/>
  <path d="M964.38,0v58.51h209.17l51.5,42.32,52.22-42.31,266.69-.05,2.47,1.05,20.05,21.55,19.76-22.57h176.72l-108.54,121.7,103.6,121.5h-171.78l-19.77-22.56-20.04,21.54-2.47,1.05-266.69-.05-52.22-42.31-51.5,42.32h-650.1v-40.89c-52.79,63.64-152.09,73.88-218.92,25.95-22.92-16.44-42.64-40.94-50.58-68.25l-2.11.35-49.73,41.24h-65.26v41.59H4.94V58.51h197.89l64.89,53.59c51.72-81.04,175.05-91.09,243.77-25.76l11.98,13.05v-40.89h284.66l1.06-1.06V23.97L964.38,0ZM942.52,25.38l-111.49,17.24-1.04,38.43-61.57,51.97v94.17s62.6,52.35,62.6,52.35l334.07.3,59.98-49.3,59.98,49.3h249.71c1.57-.3,3.79-2.98,4.96-4.2,9.06-9.46,17.16-20.01,26.09-29.6l30.34,33.82h113.93l-85.24-99.75,89.47-99.74h-118.17l-30.68,33.84c0-.86-.5-1.52-1.04-2.14-7.68-8.73-16.03-18.45-24.01-26.78-1.3-1.35-4.09-4.61-5.67-4.91h-249.71s-59.99,49.21-59.99,49.21l-59.25-49.22h-223.28V25.38ZM387.16,65.77c-83.85,5.73-150.74,91.52-101.46,170.05,55.26,88.05,211.73,75.3,240.93-27.16,24.83-87.09-59.16-148.38-139.47-142.89ZM114.99,238.27h79.37l62.29-51.96-.22-54.48-62.07-51.47H26.81v199.49h88.18v-41.59ZM633.52,80.36h-88.18v199.49h88.18v-48.64c1.23-.31,1.41.51,2.12,1.05,3.79,2.9,6.59,7.23,9.85,10.6,12.02,12.41,24.47,24.43,36.35,36.99h120.28l-103.76-105.33,100.93-94.16h-123.11l-40.56,40.54-2.12,1.05v-41.59Z" fill="#1f2b3e"/>
  <path d="M1187.32,322.15h-656.44l-12.35-14.1h657.15c3.3,3.99,7.46,7.93,10.59,11.98.55.71,1.36.9,1.05,2.12Z" fill="#acabac"/>
  <path d="M1559.81,322.15h-267.02l-16.58-14.1h271.96c3.3,3.99,7.46,7.93,10.59,11.98.55.71,1.36.9,1.05,2.12Z" fill="#acabac"/>
  <path d="M517.82,301c-5.18,3.05-9.78,6.97-14.87,10.16-68.32,42.78-165.52,31.33-217.23-31.66l14.6,11.49c64.85,47.15,160.38,41.13,217.51-15.38v25.38Z" fill="#acabac"/>
  <polygon points="1782.74 322.15 1596.84 322.15 1584.5 308.05 1771.1 308.05 1782.74 322.15" fill="#acabac"/>
  <polygon points="154.5 322.15 11.64 322.15 0 308.05 142.86 308.05 154.5 322.15" fill="#acabac"/>
  <path d="M204.59,265.76l11.29,14.1h-61.02c-2.85-3.06-9.61-11-11.64-14.1h61.38Z" fill="#acabac"/>
  <path d="M143.21,271.88l11.2,12.55v30.67c-4.92-5.46-7.29-8.65-11.2-12.2v-31.02Z" fill="#c0c2c2"/>
  <path d="M982.73,94.46l-35.63,50.05h-97v13.39h77.96l1.06,1.06v40.89c0,.23-.93,1.07-.71,1.76h-78.31v11.63c0,.36-1.11,1.48-.71,2.47h97.71l35.63,50.05h-146.39l-53.32-44.01.04-83.08,53.28-44.2h146.39ZM971.44,100.1h-132.98l-49.6,41.37.52,78.17,50.17,39.42c31.25,0,129.8-.01,131.16.05l-25.73-37.05h-100.18c-2.34-2.14-.41-5.43-.32-8.08.19-5.99-.2-12.02-.03-18h78.31v-31.72h-78.31v-25.38h99.82l27.16-38.77Z" fill="#858f99"/>
  <path d="M1436.35,94.46l-33.94,48.21c-.48.66-2.51,1.84-3.09,1.84h-96.3v13.39h79.01v43.71h-77.96l-1.06,1.06v11.28c0,.23.93,1.07.71,1.76h97l35.63,50.05h-146.39l-53.65-45.08-.36-79.38.69-2.83,53.31-44.01h146.39ZM1425.06,100.1h-132.98l-50.3,42.09-.17,71.08,1.39,6.36c4.18,2.39,28.75,24.76,30.73,24.74.36,0,16.6,14.74,18.43,14.74,49.78,0,131.77-.39,132.9,0l-12.34-16.6-13.77-20.45h-100.53c-2.34-2.14-.41-5.43-.32-8.08.19-5.99-.2-12.02-.03-18h78.31v-31.72h-78.31v-25.38h99.82l27.16-38.77Z" fill="#858f99"/>
  <path d="M1682.56,94.46l-76.22,85.65,72.69,85.65h-76.9c-.12,0-.21-1.31-1.01-2.13-12.2-12.51-23.05-26.29-35.32-38.74l-36.68,40.87h-79.37l76.07-85.64-76.07-85.66h79.37l36.68,40.87,36.68-40.87h80.07ZM1669.86,100.1h-64.55l-39.51,43.69-38.8-43.69h-64.55l71.24,80.01-69.77,79h62.84c.38,0,13.69-14.71,14.61-15.27l24.43-27.41,39.81,42.68c.66.08,60.07,0,60.07,0l-66.84-78.99,71.02-80.01Z" fill="#858f99"/>
  <path d="M1006.01,265.76V94.46h154.85l53.12,44.91-.22,81.96-53.6,44.42h-154.15ZM1158.74,100.1h-147.09l.71,159.01h147.44c.4,0,17.34-14.68,18.21-15.32l30.48-25.05v-77.25s-49.75-41.38-49.75-41.38Z" fill="#858f99"/>
  <path d="M1408.83,158.61l32.86-47.17,2.4-2.17,62.79,70.85-62.79,70.85-2.4-2.17-32.86-47.17h-12.7v-43h12.7ZM1444.83,215.7l32.34-35.72-31.3-35.47-25.51,35.6,24.47,35.59Z" fill="#1f2b3e"/>
  <polygon points="991.9 253.07 954.86 201.61 942.52 201.61 942.52 158.61 954.86 158.61 991.9 106.44 991.9 253.07" fill="#1f2b3e"/>
  <path d="M928.41,42.3v29.61l-83.25,9.16v-26.08l83.25-12.69ZM922.76,48.64l-71.96,10.57v15.51l71.96-7.75v-18.33Z"/>
  <path d="M928.41,42.3v29.61l-83.25,9.16v-26.08l83.25-12.69Z" fill="#1f2b3e"/>
  <path d="M348.42,196.59l-53.84,26.15c-26.28-48.31-3.12-101.88,42.62-127.23,51.27-28.42,120.78-18.69,158.72,26.85l-54.06,27.67c-10.32-7.9-21.85-14.27-35.16-15.37-31.89-2.62-65.84,18.34-60.14,53.75.28,1.73,2.69,6.9,1.87,8.19Z" fill="#e76058"/>
  <path d="M304.06,236.87l54.08-26.64c1.29-.12,7.81,5.49,9.9,6.76,28.42,17.24,77.13,7.86,85.11-28.17,2.1-9.46.58-16-1.57-25.18l53.31-26.08c1.48-.14,2.58,3.16,3.17,4.37,16.29,33.61,8.07,73.63-16.69,100.58-39.36,42.84-110.32,49.76-159.31,19.59-7.37-4.54-22.57-16.55-27.31-23.46-.41-.59-.96-.74-.69-1.77ZM313.97,238.3c6.7,6.67,31.81,35.58,86.03,35.9,32.98.19,65.37-14.11,81.83-30.66,27.19-24.15,37.91-65.96,20.84-98.96l-44.49,22.45c11.9,51.23-49.45,79.03-90.39,56.55-2.26-1.24-8.8-6.56-10.4-6.48l-43.42,21.2Z" fill="#858f99"/>
  <path d="M394.91,151.05c46.47-5.34,51.51,54.68,8.96,58.3-44.59,3.8-50.01-53.58-8.96-58.3ZM394.9,156.68c-15.41,2.09-27.28,16.9-20.63,32.23,10.44,24.05,55.82,17.92,53.28-11.65-1.31-15.32-19-22.43-32.65-20.58Z" fill="#858f99"/>
  <path d="M619.41,94.46v55.69l5.98-.02,56.45-55.67h81.48l-85.31,80.62,90.25,90.68h-80.07l-59.98-60.61c-2.75.58-6.76-1.15-8.8.34v60.27h-59.97V94.46h59.97ZM613.76,100.1h-47.97v159.99h47.97v-60.24l1.06-1.06h15.52l60.37,61.3h63.16l-84.33-85.52,79.67-74.47h-64.55l-56.44,55.69h-13.4l-1.06-1.06v-54.63Z" fill="#858f99"/>
  <path d="M100.88,224.17v39.12c0,.38-1.09,1.57-.71,2.47h-59.26V94.46h148.5l52.9,44.42v40.86l-52.9,44.42h-88.54ZM94.53,218.53h92.77l49.39-40.88.39-34.94-.76-2.06-49.02-40.54H46.56v159.34h47.97v-40.91Z" fill="#858f99"/>
  <path d="M1159.8,138.87v83.18h-99.47v-83.18h99.47ZM1154.16,143.81h-88.18v71.9h88.18v-71.9Z" fill="#858f99"/>
  <path d="M188.36,135.35v47.94h-93.12v-47.94h93.12ZM182.72,140.99h-81.84v36.66h81.84v-36.66Z" fill="#858f99"/>
  <rect x="1080.08" y="158.61" width="59.97" height="43" fill="#1f2b3e"/>
  <path d="M167.2,154.38c-.44,3.13,1.1,7.43-1.06,9.87h-49.74v-9.87h50.79Z" fill="#1f2b3e"/>
  <path d="M209.82,263.72l11.01,13.67,38.2-32.7c-2.38-4.63-6.36-15.34-7.19-16.68l-42.02,35.72Z" fill="#c0c2c2"/>
  <path d="M1182.54,304.52l11.01,13.67,45.25-38.74c-6.28-5.96-10.16-9.45-12.6-12.04l-43.66,37.11Z" fill="#c0c2c2"/>
  <path d="M1551.55,304.65l11.01,13.67,14.78-17.94c-5.34-7.22-8.74-11.17-11.18-13.76l-14.61,18.03Z" fill="#c0c2c2"/>
  <path d="M1426.51,182.02l8.71,11.42,21.18-29.01c-5.34-7.22-7.28-9.22-9.73-11.81l-20.16,29.4Z" fill="#acabac"/>
  <path d="M1664.39,179.99l8.71,11.42,119.36-131.43c-12.78-.5-11.2-.05-20.45-.04l-107.62,120.04Z" fill="#c0c2c2"/>
</svg>